# xmcd
#
# Track frame offsets:
# 182
# 61442
# 91012
# 114835
# 136792
# 172597
# 198282
# 201300
# 232272
# 268100
# 322835
#
# Disc length: 4659 seconds
#
#
# Revision: 0
# Processed by: cddbd v1.5.2PL0 Copyright (c) Steve Scherf et al.
# Submitted via: FreeRIP 2.951 
#
DISCID=8c12310b
DTITLE=Goldstone and Clemmow - Klaviermusik 4 Haende Vol5
DYEAR=0199
DGENRE=Classical
TTITLE0=Grande Marche Heroique D885
TTITLE1=Fantasie D9
TTITLE2=Polonaise E D824.6
TTITLE3=Polonaise E D824.3
TTITLE4=Variations on a French Song D624
TTITLE5=Variations on a French Song D624
TTITLE6=Deutscher Tanz D783.9
TTITLE7=2 Marches D886
TTITLE8=2 Marches D886
TTITLE9=Duo in a D947
TTITLE10=Schumann: ppolonaise #5 b
EXTD=
EXTT0=
EXTT1=
EXTT2=
EXTT3=
EXTT4=
EXTT5=
EXTT6=
EXTT7=
EXTT8=
EXTT9=
EXTT10=
PLAYORDER=
